<mxfile host="app.diagrams.net" modified="2022-04-11T11:33:30.363Z" agent="5.0 (Windows NT 10.0; Win64; x64) AppleWebKit/537.36 (KHTML, like Gecko) Chrome/100.0.4896.75 Safari/537.36" etag="bevOt_dhFs2TkN_KUGt_" version="17.2.1" type="github">
  <diagram id="DYqa0bQyFwnoBKbrfp7d" name="Page-1">
    <mxGraphModel dx="1209" dy="618" grid="1" gridSize="10" guides="1" tooltips="1" connect="1" arrows="1" fold="1" page="1" pageScale="1" pageWidth="1200" pageHeight="1920" math="0" shadow="0">
      <root>
        <mxCell id="0" />
        <mxCell id="1" parent="0" />
        <mxCell id="aDZhe6-dUOn2yggP2FIa-1" value="视频处理与解析" style="swimlane;fillColor=#f0a30a;strokeColor=#1A1A1A;fontColor=#000000;strokeWidth=3;fontSize=18;" parent="1" vertex="1">
          <mxGeometry x="260" y="60" width="670" height="550" as="geometry" />
        </mxCell>
        <mxCell id="aDZhe6-dUOn2yggP2FIa-2" value="" style="rhombus;whiteSpace=wrap;html=1;" parent="aDZhe6-dUOn2yggP2FIa-1" vertex="1">
          <mxGeometry x="34" y="350" width="160" height="100" as="geometry" />
        </mxCell>
        <mxCell id="aDZhe6-dUOn2yggP2FIa-3" value="&lt;font style=&quot;font-size: 16px&quot;&gt;生成数字水印&lt;/font&gt;" style="text;html=1;resizable=0;autosize=1;align=center;verticalAlign=middle;points=[];fillColor=none;strokeColor=none;rounded=0;" parent="aDZhe6-dUOn2yggP2FIa-1" vertex="1">
          <mxGeometry x="60" y="458" width="110" height="20" as="geometry" />
        </mxCell>
        <mxCell id="aDZhe6-dUOn2yggP2FIa-4" value="" style="sketch=0;outlineConnect=0;fontColor=#232F3E;gradientColor=none;fillColor=#FF4F8B;strokeColor=none;dashed=0;verticalLabelPosition=bottom;verticalAlign=top;align=center;html=1;fontSize=12;fontStyle=0;aspect=fixed;pointerEvents=1;shape=mxgraph.aws4.certificate_manager_2;fontFamily=Helvetica;" parent="aDZhe6-dUOn2yggP2FIa-1" vertex="1">
          <mxGeometry x="87.5" y="373.75" width="52.5" height="52.5" as="geometry" />
        </mxCell>
        <mxCell id="aDZhe6-dUOn2yggP2FIa-5" value="" style="sketch=0;outlineConnect=0;fontColor=#232F3E;gradientColor=none;fillColor=#A166FF;strokeColor=none;dashed=0;verticalLabelPosition=bottom;verticalAlign=top;align=center;html=1;fontSize=12;fontStyle=0;aspect=fixed;pointerEvents=1;shape=mxgraph.aws4.nat_gateway;" parent="aDZhe6-dUOn2yggP2FIa-1" vertex="1">
          <mxGeometry x="80" y="170" width="70" height="70" as="geometry" />
        </mxCell>
        <mxCell id="aDZhe6-dUOn2yggP2FIa-6" value="&lt;font style=&quot;font-size: 16px&quot;&gt;转码&lt;/font&gt;" style="text;html=1;resizable=0;autosize=1;align=center;verticalAlign=middle;points=[];fillColor=none;strokeColor=none;rounded=0;fontSize=14;" parent="aDZhe6-dUOn2yggP2FIa-1" vertex="1">
          <mxGeometry x="90" y="250" width="50" height="20" as="geometry" />
        </mxCell>
        <mxCell id="aDZhe6-dUOn2yggP2FIa-7" style="edgeStyle=orthogonalEdgeStyle;rounded=0;orthogonalLoop=1;jettySize=auto;html=1;exitX=0.5;exitY=0;exitDx=0;exitDy=0;entryX=0.475;entryY=1.01;entryDx=0;entryDy=0;entryPerimeter=0;" parent="aDZhe6-dUOn2yggP2FIa-1" source="aDZhe6-dUOn2yggP2FIa-2" target="aDZhe6-dUOn2yggP2FIa-6" edge="1">
          <mxGeometry relative="1" as="geometry">
            <mxPoint x="45" y="200" as="targetPoint" />
            <Array as="points">
              <mxPoint x="114" y="348" />
            </Array>
          </mxGeometry>
        </mxCell>
        <mxCell id="aDZhe6-dUOn2yggP2FIa-8" value="OpenCV库" style="swimlane;fontSize=16;startSize=23;fillColor=#bac8d3;strokeColor=#23445d;" parent="aDZhe6-dUOn2yggP2FIa-1" vertex="1">
          <mxGeometry x="230" y="40" width="256" height="148" as="geometry" />
        </mxCell>
        <mxCell id="aDZhe6-dUOn2yggP2FIa-9" value="&lt;font style=&quot;font-size: 14px&quot;&gt;包含人脸的视频集&lt;/font&gt;" style="text;html=1;resizable=0;autosize=1;align=center;verticalAlign=middle;points=[];fillColor=none;strokeColor=none;rounded=0;" parent="aDZhe6-dUOn2yggP2FIa-8" vertex="1">
          <mxGeometry y="98" width="130" height="20" as="geometry" />
        </mxCell>
        <mxCell id="aDZhe6-dUOn2yggP2FIa-10" value="" style="sketch=0;points=[[0,0,0],[0.25,0,0],[0.5,0,0],[0.75,0,0],[1,0,0],[0,1,0],[0.25,1,0],[0.5,1,0],[0.75,1,0],[1,1,0],[0,0.25,0],[0,0.5,0],[0,0.75,0],[1,0.25,0],[1,0.5,0],[1,0.75,0]];outlineConnect=0;fontColor=#232F3E;gradientColor=#4D72F3;gradientDirection=north;fillColor=#3334B9;strokeColor=#ffffff;dashed=0;verticalLabelPosition=bottom;verticalAlign=top;align=center;html=1;fontSize=12;fontStyle=0;aspect=fixed;shape=mxgraph.aws4.resourceIcon;resIcon=mxgraph.aws4.customer_enablement;" parent="aDZhe6-dUOn2yggP2FIa-8" vertex="1">
          <mxGeometry x="40" y="40" width="51" height="51" as="geometry" />
        </mxCell>
        <mxCell id="aDZhe6-dUOn2yggP2FIa-11" value="&lt;font style=&quot;font-size: 14px&quot;&gt;不含人脸的视频&lt;/font&gt;" style="sketch=0;outlineConnect=0;gradientColor=none;fontColor=#545B64;strokeColor=none;fillColor=#879196;dashed=0;verticalLabelPosition=bottom;verticalAlign=top;align=center;html=1;fontSize=12;fontStyle=0;aspect=fixed;shape=mxgraph.aws4.illustration_office_building;pointerEvents=1" parent="aDZhe6-dUOn2yggP2FIa-8" vertex="1">
          <mxGeometry x="150" y="40" width="71.83" height="51" as="geometry" />
        </mxCell>
        <mxCell id="aDZhe6-dUOn2yggP2FIa-12" value="" style="sketch=0;points=[[0,0,0],[0.25,0,0],[0.5,0,0],[0.75,0,0],[1,0,0],[0,1,0],[0.25,1,0],[0.5,1,0],[0.75,1,0],[1,1,0],[0,0.25,0],[0,0.5,0],[0,0.75,0],[1,0.25,0],[1,0.5,0],[1,0.75,0]];outlineConnect=0;fontColor=#232F3E;gradientColor=#F78E04;gradientDirection=north;fillColor=#D05C17;strokeColor=#ffffff;dashed=0;verticalLabelPosition=bottom;verticalAlign=top;align=center;html=1;fontSize=12;fontStyle=0;aspect=fixed;shape=mxgraph.aws4.resourceIcon;resIcon=mxgraph.aws4.media_services;" parent="aDZhe6-dUOn2yggP2FIa-1" vertex="1">
          <mxGeometry x="360" y="315.25" width="63.5" height="63.5" as="geometry" />
        </mxCell>
        <mxCell id="aDZhe6-dUOn2yggP2FIa-13" style="edgeStyle=orthogonalEdgeStyle;rounded=0;orthogonalLoop=1;jettySize=auto;html=1;exitX=0.447;exitY=1.03;exitDx=0;exitDy=0;exitPerimeter=0;" parent="aDZhe6-dUOn2yggP2FIa-1" source="aDZhe6-dUOn2yggP2FIa-9" edge="1">
          <mxGeometry relative="1" as="geometry">
            <mxPoint x="400" y="310" as="targetPoint" />
            <Array as="points">
              <mxPoint x="288" y="230" />
              <mxPoint x="400" y="230" />
            </Array>
            <mxPoint x="289" y="170" as="sourcePoint" />
          </mxGeometry>
        </mxCell>
        <mxCell id="aDZhe6-dUOn2yggP2FIa-14" value="" style="shape=curlyBracket;whiteSpace=wrap;html=1;rounded=1;" parent="aDZhe6-dUOn2yggP2FIa-1" vertex="1">
          <mxGeometry x="430.75" y="207" width="42" height="280" as="geometry" />
        </mxCell>
        <mxCell id="aDZhe6-dUOn2yggP2FIa-15" value="" style="sketch=0;outlineConnect=0;fontColor=#232F3E;gradientColor=none;fillColor=#FF9900;strokeColor=none;dashed=0;verticalLabelPosition=bottom;verticalAlign=top;align=center;html=1;fontSize=12;fontStyle=0;aspect=fixed;pointerEvents=1;shape=mxgraph.aws4.container_registry_image;" parent="aDZhe6-dUOn2yggP2FIa-1" vertex="1">
          <mxGeometry x="480.75" y="200" width="40" height="40" as="geometry" />
        </mxCell>
        <mxCell id="aDZhe6-dUOn2yggP2FIa-16" value="" style="sketch=0;outlineConnect=0;fontColor=#232F3E;gradientColor=none;fillColor=#FF9900;strokeColor=none;dashed=0;verticalLabelPosition=bottom;verticalAlign=top;align=center;html=1;fontSize=12;fontStyle=0;aspect=fixed;pointerEvents=1;shape=mxgraph.aws4.container_registry_image;" parent="aDZhe6-dUOn2yggP2FIa-1" vertex="1">
          <mxGeometry x="480.75" y="250" width="40" height="40" as="geometry" />
        </mxCell>
        <mxCell id="aDZhe6-dUOn2yggP2FIa-17" value="" style="sketch=0;outlineConnect=0;fontColor=#232F3E;gradientColor=none;fillColor=#FF9900;strokeColor=none;dashed=0;verticalLabelPosition=bottom;verticalAlign=top;align=center;html=1;fontSize=12;fontStyle=0;aspect=fixed;pointerEvents=1;shape=mxgraph.aws4.container_registry_image;" parent="aDZhe6-dUOn2yggP2FIa-1" vertex="1">
          <mxGeometry x="482.75" y="300" width="38" height="38" as="geometry" />
        </mxCell>
        <mxCell id="aDZhe6-dUOn2yggP2FIa-18" value="" style="sketch=0;outlineConnect=0;fontColor=#232F3E;gradientColor=none;fillColor=#FF9900;strokeColor=none;dashed=0;verticalLabelPosition=bottom;verticalAlign=top;align=center;html=1;fontSize=12;fontStyle=0;aspect=fixed;pointerEvents=1;shape=mxgraph.aws4.container_registry_image;" parent="aDZhe6-dUOn2yggP2FIa-1" vertex="1">
          <mxGeometry x="482.75" y="350" width="38" height="38" as="geometry" />
        </mxCell>
        <mxCell id="aDZhe6-dUOn2yggP2FIa-19" value="" style="sketch=0;outlineConnect=0;fontColor=#232F3E;gradientColor=none;fillColor=#FF9900;strokeColor=none;dashed=0;verticalLabelPosition=bottom;verticalAlign=top;align=center;html=1;fontSize=12;fontStyle=0;aspect=fixed;pointerEvents=1;shape=mxgraph.aws4.container_registry_image;" parent="aDZhe6-dUOn2yggP2FIa-1" vertex="1">
          <mxGeometry x="481.75" y="400" width="38" height="38" as="geometry" />
        </mxCell>
        <mxCell id="aDZhe6-dUOn2yggP2FIa-20" value="" style="sketch=0;outlineConnect=0;fontColor=#232F3E;gradientColor=none;fillColor=#FF9900;strokeColor=none;dashed=0;verticalLabelPosition=bottom;verticalAlign=top;align=center;html=1;fontSize=12;fontStyle=0;aspect=fixed;pointerEvents=1;shape=mxgraph.aws4.container_registry_image;" parent="aDZhe6-dUOn2yggP2FIa-1" vertex="1">
          <mxGeometry x="482.75" y="449" width="38" height="38" as="geometry" />
        </mxCell>
        <mxCell id="aDZhe6-dUOn2yggP2FIa-21" value="&lt;font style=&quot;font-size: 18px&quot;&gt;抽帧&lt;/font&gt;" style="text;html=1;resizable=0;autosize=1;align=center;verticalAlign=middle;points=[];fillColor=none;strokeColor=none;rounded=0;" parent="aDZhe6-dUOn2yggP2FIa-1" vertex="1">
          <mxGeometry x="365.75" y="388" width="50" height="20" as="geometry" />
        </mxCell>
        <mxCell id="aDZhe6-dUOn2yggP2FIa-22" style="edgeStyle=orthogonalEdgeStyle;rounded=0;orthogonalLoop=1;jettySize=auto;html=1;entryX=0;entryY=0.5;entryDx=0;entryDy=0;" parent="aDZhe6-dUOn2yggP2FIa-1" source="aDZhe6-dUOn2yggP2FIa-5" target="aDZhe6-dUOn2yggP2FIa-8" edge="1">
          <mxGeometry relative="1" as="geometry">
            <mxPoint x="210" y="185" as="targetPoint" />
            <Array as="points">
              <mxPoint x="115" y="114" />
            </Array>
            <mxPoint x="45" y="170" as="sourcePoint" />
          </mxGeometry>
        </mxCell>
        <mxCell id="aDZhe6-dUOn2yggP2FIa-23" style="edgeStyle=orthogonalEdgeStyle;rounded=0;orthogonalLoop=1;jettySize=auto;html=1;fillColor=#e51400;strokeColor=#FF8000;strokeWidth=3;" parent="1" source="aDZhe6-dUOn2yggP2FIa-16" edge="1">
          <mxGeometry relative="1" as="geometry">
            <mxPoint x="990" y="430" as="targetPoint" />
          </mxGeometry>
        </mxCell>
        <mxCell id="aDZhe6-dUOn2yggP2FIa-24" style="edgeStyle=orthogonalEdgeStyle;rounded=0;orthogonalLoop=1;jettySize=auto;html=1;fillColor=#f0a30a;strokeColor=#FF8000;strokeWidth=3;" parent="1" source="aDZhe6-dUOn2yggP2FIa-18" edge="1">
          <mxGeometry relative="1" as="geometry">
            <mxPoint x="990" y="429" as="targetPoint" />
          </mxGeometry>
        </mxCell>
        <mxCell id="aDZhe6-dUOn2yggP2FIa-25" style="edgeStyle=orthogonalEdgeStyle;rounded=0;orthogonalLoop=1;jettySize=auto;html=1;fillColor=#f0a30a;strokeColor=#FF8000;strokeWidth=3;" parent="1" source="aDZhe6-dUOn2yggP2FIa-20" edge="1">
          <mxGeometry relative="1" as="geometry">
            <mxPoint x="990" y="430" as="targetPoint" />
          </mxGeometry>
        </mxCell>
      </root>
    </mxGraphModel>
  </diagram>
</mxfile>
